# xmcd
#
# Track frame offsets:
#	150
#	17745
#	33552
#	56164
#	73520
#	89272
#	109692
#	122097
#	137737
#	157695
#	174420
#	191209
#	208825
#	224152
#	234790
#	250802
#
# Disc length: 3571 seconds
#
# Revision: 1
# Processed by: cddbd v1.4b42PL1 Copyright (c) Steve Scherf et al.
# Submitted via: audiograbber 1.80.04
#
DISCID=e40df110
DTITLE=Various Artist - Wings Of A Dove
DYEAR=2000
DGENRE=Country
TTITLE0=Somebody Must Be Prayin' For Me (Tim McGraw)
TTITLE1=I Need You (LeAnn Rines)
TTITLE2=Pass Me Not Oh Gentle Savior (Lyle Lovett)
TTITLE3=Because You Love Me (Jo Dee Messina)
TTITLE4=I Pray For You (David Kersh)
TTITLE5=Just Like The Moon (Steve Holy)
TTITLE6=800 Pound Jesus (Sawyer Brown)
TTITLE7=Loving You Makes Me A Better Man (Hal Ketchum)
TTITLE8=Over My Head (Keith Perry)
TTITLE9=On The Wings Of A Dove (Jim Witter)
TTITLE10=Backslider's Prayer (Lesley McDaniel)
TTITLE11=Scars And All (Jeff Carson)
TTITLE12=All Things Beautiful (Shane McAnally)
TTITLE13=Live With Jesus (Wynonna)
TTITLE14=I'm Not Homeless (Ken Mellons)
TTITLE15=Building A True Believer (Mark Miller)
EXTD=
EXTT0=
EXTT1=
EXTT2=
EXTT3=
EXTT4=
EXTT5=
EXTT6=
EXTT7=
EXTT8=
EXTT9=
EXTT10=
EXTT11=
EXTT12=
EXTT13=
EXTT14=
EXTT15=
PLAYORDER=
